<svg width="64" height="64" viewBox="0 0 64 64" fill="none" xmlns="http://www.w3.org/2000/svg">
<g clip-path="url(#clip0_2_1348)">
<path d="M32 64C49.6731 64 64 49.6731 64 32C64 14.3269 49.6731 0 32 0C14.3269 0 0 14.3269 0 32C0 49.6731 14.3269 64 32 64Z" fill="#32735F"/>
<path d="M22.1642 49.9611C27.6558 49.9611 32.1077 45.5093 32.1077 40.0177C32.1077 34.5261 27.6558 30.0742 22.1642 30.0742C16.6726 30.0742 12.2207 34.5261 12.2207 40.0177C12.2207 45.5093 16.6726 49.9611 22.1642 49.9611Z" fill="#E1FFA0"/>
<path opacity="0.5" d="M32.1075 41.926C37.5991 41.926 42.051 37.4741 42.051 31.9825C42.051 26.4909 37.5991 22.0391 32.1075 22.0391C26.6159 22.0391 22.164 26.4909 22.164 31.9825C22.164 37.4741 26.6159 41.926 32.1075 41.926Z" fill="#E1FFA0"/>
<path opacity="0.2" d="M41.0567 33.8869C46.5483 33.8869 51.0002 29.4351 51.0002 23.9435C51.0002 18.4518 46.5483 14 41.0567 14C35.5651 14 31.1132 18.4518 31.1132 23.9435C31.1132 29.4351 35.5651 33.8869 41.0567 33.8869Z" fill="#E1FFA0"/>
</g>
<defs>
<clipPath id="clip0_2_1348">
<rect width="64" height="64" fill="white"/>
</clipPath>
</defs>
</svg>
